# xmcd
#
# Track frame offsets: 
#        150
#        2299
#        20266
#        38930
#        61453
#        80399
#        100192
#        150528
#        165404
#
# Disc length: 2574 seconds
#
# Revision: 0
# Processed by: cddbd v1.5.2PL0 Copyright (c) Steve Scherf et al.
# Submitted via: ExactAudioCopy v1.3
#
DISCID=560a0c09
DTITLE=The Nighthawks - Live In Europe
DYEAR=1987
DGENRE=Blues Rock
TTITLE0=Intro
TTITLE1=If You Love Me (Say I)
TTITLE2=Back To The City
TTITLE3=Mighty Long Time
TTITLE4=Nothin' But You
TTITLE5=Save That Dress
TTITLE6=Black Night
TTITLE7=Hard Headed Woman
TTITLE8=I Can Tell
EXTD=
EXTT0=
EXTT1=
EXTT2=
EXTT3=
EXTT4=
EXTT5=
EXTT6=
EXTT7=
EXTT8=
PLAYORDER=
